<?xml version="1.0" encoding="UTF-8"?><!DOCTYPE svg PUBLIC "-//W3C//DTD SVG 1.1//EN" "http://www.w3.org/Graphics/SVG/1.1/DTD/svg11.dtd"><svg xmlns="http://www.w3.org/2000/svg" xmlns:xlink="http://www.w3.org/1999/xlink" version="1.1" width="24" height="24" viewBox="0 0 24 24"><path d="M20,6.5A0.5,0.5 0 0,1 19.5,7H17.5A0.5,0.5 0 0,1 17,6.5V4.5A0.5,0.5 0 0,1 17.5,4H19.5A0.5,0.5 0 0,1 20,4.5M4.5,20A0.5,0.5 0 0,1 4,19.5V11H6.09C6.03,11.32 6,11.66 6,12A6,6 0 0,0 12,18A6,6 0 0,0 18,12C18,11.66 17.96,11.32 17.91,11H20V19.5A0.5,0.5 0 0,1 19.5,20M12,8A4,4 0 0,1 16,12A4,4 0 0,1 12,16A4,4 0 0,1 8,12A4,4 0 0,1 12,8M20,2H4C2.89,2 2,2.89 2,4V20A2,2 0 0,0 4,22H20A2,2 0 0,0 22,20V4C22,2.89 21.1,2 20,2Z" /></svg>